<svg width="81" height="49" viewBox="0 0 81 49" fill="none" xmlns="http://www.w3.org/2000/svg">
<path d="M22.6988 42L14.0647 29.8634V42H8V17H13.766L22.4 29.3183V17H28.4648V42H22.6988Z" fill="white"/>
<path d="M32.8866 17H50.6626V22.9956H39.4891V26.4477H49.0493V32.189H39.4891V36.0044H50.8717V42H32.8866V17Z" fill="white"/>
<path d="M66.278 23.3953V42H59.6755V23.3953H52.9236V17H73V23.3953H66.278Z" fill="white"/>
<path d="M73.6364 9.8H45.7282L57.8414 1.7395L55.2273 0L40.5 9.8H40.3895L25.6623 0L23.1218 1.7395L35.1982 9.8H7.36364C3.31364 9.8 0 12.005 0 14.7V44.1C0 46.795 3.31364 49 7.36364 49H73.6364C77.6864 49 81 46.795 81 44.1V14.7C81 12.005 77.6864 9.8 73.6364 9.8ZM73.6364 44.1H7.36364V14.7H73.6364V44.1Z" fill="white"/>
</svg>
